PathFileType	4	(X/Y/Z)	C:\Users\WrightLab\Desktop\Jo\P3_27.trc
DataRate	CameraRate	NumFrames	NumMarkers	Units	OrigDataRate	OrigDataStartFrame	OrigNumFrames
100.00	100.00	       20	19	mm	100.00	1	       549
Frame#	Time	Headset_Front			Headset_Back			Headset_Left			Headset_Right			Left_Shoulder			Right_Shoulder			Sternum			C7			Left Elbow			Right Elbow			Left Wrist			Right Wrist			Left ASIS			Right ASIS			S2			Left Knee			Right Knee			Left Ankle			Right Ankle			
		X1	Y1	Z1	X2	Y2	Z2	X3	Y3	Z3	X4	Y4	Z4	X5	Y5	Z5	X6	Y6	Z6	X7	Y7	Z7	X8	Y8	Z8	X9	Y9	Z9	X10	Y10	Z10	X11	Y11	Z11	X12	Y12	Z12	X13	Y13	Z13	X14	Y14	Z14	X15	Y15	Z15	X16	Y16	Z16	X17	Y17	Z17	X18	Y18	Z18	X19	Y19	Z19	

1	0.000				-24.24854	1669.83362	2110.77832	-148.35390	1594.16174	2033.98572				-227.62073	1378.06555	2095.90234	130.05450	1385.11230	2159.53149				-50.57895	1440.51013	2175.79590	-290.54041	1044.82605	2083.75391	208.31438	1041.60669	2201.08984	-261.08810	874.77820	1969.44434	209.85066	860.09479	2067.68018	-131.12238	900.41235	2023.47949				-54.79823	988.80383	2253.64917	-109.82981	486.15170	2048.94849	115.42094	464.71765	2136.66309	-82.76707	158.69000	2102.31958	59.70227	276.37622	2415.09692	
2	0.010				-22.74186	1670.23254	2103.52832	-146.95705	1594.25769	2026.90967				-226.22697	1379.18018	2088.99292	131.20946	1385.34082	2152.22021				-49.29638	1440.66882	2167.84009	-290.50009	1045.74731	2072.97437	209.68837	1041.63989	2194.14209	-261.31891	876.67084	1957.75671	211.65594	861.73212	2056.79639	-130.72054	901.86218	2013.95447				-53.62329	988.73236	2246.42603	-109.56823	485.98932	2048.14453	119.10931	465.51950	2118.78613	-82.53843	158.71243	2101.55786	61.96450	282.61307	2400.08472	
3	0.020				-21.60305	1670.62256	2095.85156	-146.12241	1594.79639	2018.84326				-224.89766	1379.19202	2079.90356	132.76460	1385.02527	2144.92041				-48.48369	1441.28381	2160.55811	-290.70496	1046.76489	2062.41162	211.14746	1041.27905	2185.17578	-261.45038	878.65356	1944.37170	213.48228	863.33417	2049.15381	-129.88776	900.99609	2007.69373				-52.09550	988.57001	2239.10303	-109.06133	486.06415	2045.35986	122.26375	467.69962	2099.15698	-82.16726	158.80447	2100.67236	65.56988	283.34457	2380.03149	
4	0.030				-20.51868	1671.05652	2087.81812	-144.64201	1594.95288	2011.54688				-223.61385	1379.85132	2071.94849	133.33437	1385.58081	2137.70776				-47.88943	1441.94702	2153.41919	-290.61807	1048.44263	2052.02246	212.32220	1041.20740	2176.59644	-261.59543	881.90137	1931.49377	215.40971	864.32202	2038.91675	-129.20824	900.98474	2002.04480				-51.21526	989.16998	2232.43848	-108.18069	484.76639	2040.59192	126.01797	469.54565	2080.42871	-81.54341	158.90932	2099.55420	68.30022	285.08524	2360.53052	
5	0.040				-18.96558	1671.53870	2080.57495	-143.81227	1595.12097	2004.12451				-222.61852	1380.62317	2064.56372	133.91409	1385.82141	2131.47998				-46.66344	1442.18945	2146.21680	-290.54340	1049.10901	2041.54810	213.06888	1041.66956	2170.77295	-261.91635	885.23303	1917.29895	217.41545	866.48737	2030.03809	-128.07675	900.77271	1995.80115				-49.62585	989.22363	2225.18262	-107.76070	484.25198	2039.40857	129.65169	472.25146	2062.44995	-81.16336	158.98764	2098.56738	71.53510	286.48059	2341.42480	
6	0.050				-18.15123	1671.61108	2072.57764	-142.57179	1594.99304	1996.06677				-221.32611	1381.28284	2056.18921	135.52907	1385.73987	2123.53882				-45.51656	1442.42932	2138.53076	-290.51758	1050.31360	2030.15942	214.28252	1041.79419	2162.28687	-262.17657	887.90338	1906.94263	219.14163	867.64496	2019.21167	-127.13680	900.58020	1987.49011				-48.67836	988.88708	2217.89673	-107.29159	484.21484	2036.08545	132.91301	475.05078	2044.15845	-80.26476	157.89485	2097.44897	74.32502	284.62967	2319.65747	
7	0.060				-16.99961	1671.88660	2064.70703	-141.09747	1595.26941	1988.73706				-219.70522	1381.62488	2049.25049	136.50861	1385.79541	2115.85327				-44.24378	1442.44568	2131.08081	-290.39975	1051.75476	2019.98792	215.52173	1041.25842	2153.82446	-262.29691	890.84741	1893.04871	220.86533	869.87427	2007.70361	-126.63534	901.50427	1978.75024				-47.41337	989.48547	2211.39087	-106.47009	484.33569	2031.95825	135.89212	478.17786	2026.53394	-79.94595	157.99675	2096.94482	78.49538	285.30161	2301.72510	
8	0.070				-15.70398	1672.06494	2057.00220	-140.21953	1594.96313	1980.71997				-218.62303	1381.88440	2040.67798	137.29231	1386.70300	2109.89087				-43.25952	1443.48743	2124.01855	-289.58701	1052.85889	2009.29541	216.26070	1042.28198	2147.96924	-262.69281	893.74078	1879.56885	223.24689	870.04523	2002.81873	-125.92571	900.57867	1972.21765				-46.41466	988.77527	2203.14160	-105.17385	482.89777	2030.67151	138.82539	481.52975	2009.12878	-79.78537	158.19791	2096.54907	80.64580	283.59146	2279.14771	
9	0.080				-14.73772	1672.08203	2048.44507	-138.99794	1595.41833	1974.19775				-217.16840	1383.02905	2034.21765	138.31638	1386.29163	2102.13135				-42.11089	1443.34937	2116.25879	-289.26859	1054.10144	1999.59827	217.36490	1042.24963	2139.73535	-262.81604	895.78210	1870.02588	224.78255	872.06616	1991.77527	-124.83919	900.57825	1967.64856				-45.52181	989.79352	2197.18018	-104.46368	482.55939	2027.58484	141.43068	484.18195	1991.83130	-79.68153	158.22231	2096.17773	84.51040	279.59030	2258.43555	
10	0.090				-12.99205	1672.50989	2040.86401	-137.93033	1595.07471	1965.56299				-215.81247	1382.78931	2025.80750	139.92548	1386.61658	2094.96167				-40.68664	1443.71973	2109.32373	-288.87189	1055.23975	1989.52844	218.72595	1041.43237	2131.94849	-263.41168	899.95941	1856.60400	226.81601	872.82947	1983.48511	-123.91187	901.09430	1957.09583				-44.52308	989.63226	2189.29126	-104.53290	482.96054	2025.43628	143.90671	488.04172	1975.06128	-79.50265	158.33417	2095.79248	89.14799	277.71231	2237.13257	
11	0.100				-11.64212	1672.46301	2032.78088	-136.42822	1595.00012	1958.42969				-214.11633	1383.46362	2018.45178	141.16426	1386.59607	2087.36865				-39.38513	1443.29773	2101.17847	-288.71725	1056.35669	1980.50171	219.57985	1042.74084	2125.73438	-263.79739	903.13702	1843.34619	228.62004	874.07025	1974.80737	-123.02695	900.30853	1951.07117				-43.41048	989.45197	2181.88770	-103.97761	481.74826	2021.44373	146.43651	490.40927	1958.60718	-79.44415	158.35374	2095.50610	91.80229	273.54807	2214.82373	
12	0.110				-10.44173	1672.69873	2024.01782	-135.57686	1594.59937	1950.41699				-212.42422	1383.76868	2010.39661	142.20296	1386.49072	2080.01489				-37.94811	1443.63855	2094.21899	-288.17163	1057.53723	1970.05640	220.89433	1041.53589	2116.92310	-264.29935	905.84113	1833.12268	230.58757	875.03308	1966.16406	-122.05076	899.20386	1943.77429				-41.96889	989.37262	2174.85181	-103.60211	481.62845	2019.05737	149.00197	494.04245	1943.43518	-80.17797	159.65562	2094.05005	97.25234	267.21725	2191.27222	
13	0.120				-8.80441	1672.83350	2016.81592	-134.21625	1594.34338	1944.28162				-211.07233	1383.74902	2002.67310	143.36363	1386.56335	2073.64380				-36.53843	1443.28491	2086.34180	-287.84015	1058.33154	1960.64795	222.87151	1041.80908	2110.29980	-264.54382	907.85876	1823.86987	232.42863	876.19550	1957.24414	-120.89938	899.40979	1936.03906				-41.09643	988.56769	2167.43896	-102.65691	481.47040	2015.92517	151.10530	497.57184	1928.18640	-80.14314	159.89963	2093.22363	100.72065	262.42429	2168.59448	
14	0.130				-7.36016	1672.64221	2007.50146	-133.19601	1593.89172	1935.72888				-209.59712	1384.31494	1995.91418	144.38638	1385.96057	2065.74707				-34.96372	1443.37109	2078.85596	-286.92181	1059.24011	1951.47278	223.91670	1041.49707	2102.07251	-264.80020	911.30457	1810.68005	234.28699	876.23230	1949.38855	-119.23173	897.98248	1930.33435				-39.78470	988.78259	2160.81201	-102.11282	482.03018	2012.45374	153.24922	500.56656	1913.31201	-79.94279	159.92967	2092.28320	105.87446	255.76869	2146.25586	
15	0.140				-5.88164	1672.11938	2000.23572	-131.39201	1594.52283	1928.90320				-208.36465	1383.77710	1987.77954	146.24521	1385.55554	2058.21924				-33.82407	1443.16943	2071.75098	-286.30377	1060.08740	1942.61023	225.12184	1041.72119	2095.61890	-265.52667	914.52313	1796.61938	236.06425	877.37451	1939.81470	-118.62488	897.81873	1923.38049				-38.75009	988.34875	2152.94287	-100.79237	480.01004	2009.46497	155.13632	503.35703	1898.72681	-79.68494	159.93843	2091.29956	109.96645	248.57329	2120.21484	
16	0.150				-4.01276	1672.02930	1991.81628	-130.16353	1593.69507	1920.39905				-206.57623	1384.30505	1980.97424	147.70116	1384.79346	2050.21973				-32.47065	1443.01782	2064.14478	-285.82794	1060.67969	1932.69861	226.93184	1040.96960	2087.70020	-265.45801	916.89642	1784.89319	237.89137	876.89795	1931.84534	-116.65062	895.76282	1917.98096				-37.31063	988.25690	2146.61108	-100.95948	480.31754	2006.23328	157.20020	505.31354	1886.43384	-79.35744	160.00443	2090.61426	115.31483	240.86140	2096.06030	
17	0.160				-2.72578	1671.88708	1983.39539	-128.71002	1592.94910	1913.73828				-205.52893	1383.11414	1972.82251	149.38478	1384.31580	2041.81592				-30.97091	1442.67712	2056.40137	-285.49713	1061.35486	1923.49731	228.48256	1039.97742	2079.18066	-266.03558	918.92975	1773.65771	239.83073	877.02838	1923.88171	-115.32448	895.56537	1910.36475				-35.81823	987.07196	2138.36572	-99.73978	479.52652	2004.43945	158.62318	508.19211	1873.64026	-79.13041	159.78764	2089.78833	120.80563	232.33177	2070.61719	
18	0.170				-0.54131	1670.96375	1975.25916	-127.65477	1592.30835	1905.17126				-203.78366	1383.27405	1966.76514	150.57994	1383.91418	2035.42627				-29.51343	1442.21887	2048.53223	-285.04489	1061.38574	1914.86536	230.12894	1040.15869	2072.92505	-266.39200	921.23602	1763.92029	241.37167	876.70410	1915.47156	-114.27221	894.49396	1903.36914				-33.94392	986.56116	2131.24634	-99.05944	478.39877	1999.83484	160.64636	510.43024	1863.08582	-78.84954	159.84100	2089.11987	125.36567	224.23183	2043.23425	
19	0.180				0.61443	1669.79456	1966.93420	-125.66416	1592.05957	1897.77417				-202.59561	1382.49878	1957.78040	151.91652	1383.00757	2026.45239				-27.79028	1441.67920	2041.29285	-284.97293	1061.83813	1905.71472	231.21664	1038.91687	2064.23340	-266.84824	923.28308	1753.45679	243.28926	876.67151	1908.69470	-112.69681	893.28406	1894.62268				-32.62002	985.93768	2123.31787	-97.14780	478.08386	1996.58044	161.32137	511.44757	1850.56799	-78.37083	159.79938	2088.29102	131.08858	215.43694	2017.51184	
20	0.190				2.67926	1669.50061	1960.16455	-124.27789	1590.47498	1889.00781				-200.64635	1381.49683	1951.05530	153.54805	1382.53931	2019.43201				-26.06024	1440.56299	2032.61780	-284.75348	1062.20947	1895.70239	232.74339	1038.89050	2058.28394	-266.97644	925.18811	1740.58118	244.61093	876.69208	1898.55518	-111.67910	893.39087	1886.69934				-30.64133	985.39752	2116.03369	-96.68995	477.22986	1993.31433	162.96884	512.71130	1838.94519	-77.90648	160.16721	2087.66846	136.38651	207.42029	1990.61462	
